<?xml version="1.0" encoding="UTF-8" standalone="no"?>
<!-- Created with Inkscape (http://www.inkscape.org/) -->
<svg
   xmlns:dc="http://purl.org/dc/elements/1.1/"
   xmlns:cc="http://web.resource.org/cc/"
   xmlns:rdf="http://www.w3.org/1999/02/22-rdf-syntax-ns#"
   xmlns:svg="http://www.w3.org/2000/svg"
   xmlns="http://www.w3.org/2000/svg"
   xmlns:sodipodi="http://sodipodi.sourceforge.net/DTD/sodipodi-0.dtd"
   xmlns:inkscape="http://www.inkscape.org/namespaces/inkscape"
   id="svg2"
   sodipodi:version="0.32"
   inkscape:version="0.45.1"
   width="200"
   height="250"
   version="1.0"
   sodipodi:docbase="D:\Chris\Daten\Graphik\svg\Wikipedia\Nur vektorisiert"
   sodipodi:docname="Karate-vert.svg"
   inkscape:output_extension="org.inkscape.output.svg.inkscape">
  <metadata
     id="metadata7">
    <rdf:RDF>
      <cc:Work
         rdf:about="">
        <dc:format>image/svg+xml</dc:format>
        <dc:type
           rdf:resource="http://purl.org/dc/dcmitype/StillImage" />
      </cc:Work>
    </rdf:RDF>
  </metadata>
  <defs
     id="defs5" />
  <sodipodi:namedview
     inkscape:window-height="781"
     inkscape:window-width="1280"
     inkscape:pageshadow="2"
     inkscape:pageopacity="0.0"
     guidetolerance="10.0"
     gridtolerance="10.0"
     objecttolerance="10.0"
     borderopacity="1.0"
     bordercolor="#666666"
     pagecolor="#ffffff"
     id="base"
     inkscape:zoom="2.384"
     inkscape:cx="100"
     inkscape:cy="125"
     inkscape:window-x="110"
     inkscape:window-y="110"
     inkscape:current-layer="svg2"
     width="200px"
     height="250px" />
  <path
     id="path2253"
     style="fill:#000000"
     d="M 91.062758,232.32801 C 89.125919,229.89058 85.704363,227.49135 83.459302,226.99638 C 76.456999,225.45256 77.779445,224.06503 85.719507,224.62493 C 95.973489,225.348 97.229832,223.40825 97.229832,206.85343 L 97.229832,193.91305 L 87.91387,198.56762 C 82.790091,201.12764 78.262534,203.62381 77.852632,204.11467 C 77.442729,204.60552 76.101231,204.99958 74.871524,204.99035 C 73.641817,204.98114 70.172688,205.43855 67.162351,206.00682 C 58.082828,207.72081 57.655714,201.78535 66.376736,195.08938 C 70.671173,191.79213 70.862903,191.75508 68.305652,194.71674 C 64.829619,198.74247 65.789542,198.82001 73.835386,195.16345 C 77.274578,193.60044 83.971601,190.60733 88.717659,188.51209 C 96.635563,185.01659 97.296266,184.36006 96.733124,180.5474 C 95.985792,175.4877 94.216153,175.76831 86.218022,182.21475 C 82.846764,184.93197 78.076215,188.34492 75.616801,189.79911 C 71.626354,192.15855 71.706558,191.98147 76.362078,188.15355 C 79.231394,185.79432 83.926639,181.62343 86.795955,178.88493 L 92.012893,173.90582 L 87.225213,174.7278 C 83.506744,175.36621 81.426252,174.69884 77.909252,171.73948 C 71.609716,166.43877 71.858968,162.53008 78.496524,162.53008 C 81.310079,162.53008 85.983217,161.74754 88.881275,160.79109 C 93.618107,159.22779 94.131036,158.53505 93.958084,153.93455 C 93.852271,151.11989 93.621905,148.81698 93.446161,148.81698 C 93.270417,148.81698 90.277823,151.49998 86.795955,154.7792 C 74.643775,166.2241 77.192176,160.51069 94.502078,137.50239 C 97.641952,133.32887 100.21094,128.80131 100.21094,127.44115 C 100.21094,124.5377 102.13811,124.31022 106.64378,126.68182 C 114.55773,130.8474 113.90144,135.55018 104.60816,141.26839 C 97.809508,145.45164 97.304561,146.12354 99.391222,148.2102 C 100.66187,149.48085 101.70149,151.47868 101.70149,152.64984 C 101.70149,154.03224 103.30448,154.7792 106.27115,154.7792 C 111.43754,154.7792 116.60703,157.09647 116.60703,159.41236 C 116.60703,160.26332 113.92404,163.36811 110.64482,166.31193 C 105.95004,170.52653 104.6826,172.72135 104.6826,176.63674 C 104.6826,182.11922 105.13866,182.33432 111.82233,180.00439 C 115.18097,178.83356 116.18946,177.72514 115.55177,175.90537 C 114.87768,173.98174 115.10043,173.80069 116.52545,175.11399 C 117.56795,176.07477 120.77595,176.49459 123.8868,176.07733 C 127.90493,175.5384 129.96665,176.02007 131.48798,177.85315 C 134.89574,181.95925 131.53419,185.17387 122.41039,186.53394 C 117.98883,187.19307 113.35328,187.89556 112.10917,188.09506 C 106.72362,188.95864 105.89961,190.7052 106.82763,199.28966 C 107.32732,203.91197 107.11889,212.92994 106.36445,219.32957 C 104.35316,236.39059 98.345969,241.49356 91.062758,232.32801 z M 62.995504,119.09637 C 61.183596,115.71079 61.837374,115.15715 69.300528,113.75705 C 76.740905,112.36123 85.451186,105.84677 91.359895,97.258756 L 96.183702,90.247593 L 89.294868,91.024064 C 83.391743,91.689432 82.274072,91.38476 81.483791,88.894802 C 80.275446,85.087648 80.890769,84.60447 90.945457,81.465111 C 106.61554,76.572466 116.77371,78.644103 114.36262,86.24076 C 112.87044,90.942218 101.38758,101.01478 99.668354,102.17166 C 97.976021,103.63288 96.648472,105.21078 93.724143,107.43286 C 92.082517,108.67318 98.235956,107.98225 107.66371,108.0195 C 127.11288,108.09636 130.85996,108.89655 131.98904,113.21419 C 132.61567,115.61042 131.71251,116.71617 127.79007,118.35507 C 123.4991,120.14796 121.94807,120.14506 116.81669,118.3346 C 109.81906,115.8657 94.504506,116.43862 78.288109,119.77596 C 64.762953,122.55945 64.850982,122.56336 62.995504,119.09637 z M 73.184572,70.432262 C 76.495116,66.671284 80.685143,60.466854 82.495744,56.644638 C 84.306347,52.822422 85.993661,49.436609 86.245334,49.120609 C 87.164503,47.966495 94.248724,53.547354 94.248724,55.425577 C 94.248724,63.769632 80.360292,77.270401 71.776645,77.270401 L 67.1654,77.270401 L 73.184572,70.432262 z M 112.08392,73.60601 C 113.51476,71.881954 112.90162,70.619 108.89644,67.040365 C 104.65928,63.254468 103.93732,61.625961 103.93732,55.854166 C 103.93732,47.585117 106.82716,43.818534 109.93827,48.032589 C 111.93508,50.737305 112.20039,50.681919 117.07831,46.542035 C 119.8647,44.177228 122.91648,41.068574 123.86005,39.633916 C 125.40214,37.289209 124.93378,37.026053 119.22813,37.03144 C 111.76942,37.038484 86.430213,40.918444 80.306617,42.991136 C 77.188901,44.046408 75.278005,43.887943 73.150366,42.397686 C 70.481145,40.528092 71.153097,40.034281 81.502897,36.259499 C 93.885819,31.743195 94.512127,30.693629 90.522339,21.144723 C 87.65354,14.278723 87.708767,13.176585 90.921607,13.176585 C 95.534849,13.176585 104.73565,20.521955 105.61219,24.904672 L 106.43066,28.997006 L 123.32481,28.912204 C 138.25771,28.837245 140.70858,29.192155 144.43645,31.96937 C 147.36961,34.154526 148.65394,36.424091 148.65394,39.422139 C 148.65394,43.888241 148.38526,44.024886 131.51257,48.139872 C 130.28286,48.439779 127.38851,49.415468 125.08068,50.30807 C 122.77285,51.200674 118.91604,51.930985 116.51,51.930985 C 113.78796,51.930985 112.13537,52.706662 112.13537,53.984305 C 112.13537,57.142287 115.39853,59.155278 122.3091,60.260323 C 126.71346,60.964608 129.45442,62.455563 131.4203,65.216392 C 135.55843,71.027859 133.24787,74.238375 125.6598,73.220599 C 122.43534,72.788109 117.66305,73.178202 115.05472,74.087471 C 110.99274,75.503485 110.56649,75.434404 112.08392,73.60601 z M 53.07716,60.061472 C 50.97507,56.853277 50.860831,55.367821 52.337228,50.440045 C 54.319357,43.824288 60.692335,35.534893 63.796473,35.534893 C 67.092743,35.534893 68.048871,42.824664 66.032819,52.585415 C 65.010361,57.535675 63.858207,62.096532 63.47248,62.720652 C 61.857933,65.333044 55.45864,63.69607 53.07716,60.061472 z " />
</svg>
