<?xml version="1.0" encoding="UTF-8" standalone="no"?>
<!-- Created with Inkscape (http://www.inkscape.org/) -->
<svg
   xmlns:svg="http://www.w3.org/2000/svg"
   xmlns="http://www.w3.org/2000/svg"
   version="1.0"
   width="107.58125"
   height="125.25892"
   id="svg2">
  <defs
     id="defs4" />
  <g
     transform="translate(-166.17009,-274.03964)"
     id="layer1">
    <path
       d="M 246.02344,286.81237 L 246.02344,319.78893 L 243.42188,319.78893 C 242.57806,313.46088 241.06635,308.42182 238.88672,304.67175 C 236.70697,300.92183 233.60151,297.94527 229.57031,295.74206 C 225.53902,293.53902 221.36715,292.43746 217.05469,292.43737 C 212.17966,292.43746 208.14841,293.92574 204.96094,296.90221 C 201.77342,299.87886 200.17967,303.26558 200.17969,307.06237 C 200.17967,309.96869 201.18748,312.61713 203.20313,315.00768 C 206.10935,318.52337 213.0234,323.21087 223.94531,329.07018 C 232.85151,333.85148 238.93353,337.51945 242.19141,340.07409 C 245.44915,342.62882 247.95696,345.64053 249.71484,349.10925 C 251.47258,352.57803 252.35149,356.21084 252.35156,360.00768 C 252.35149,367.22645 249.55071,373.4491 243.94922,378.67565 C 238.3476,383.90221 231.14057,386.51549 222.32813,386.5155 C 219.56246,386.51549 216.9609,386.30456 214.52344,385.88268 C 213.07028,385.64831 210.05856,384.79284 205.48828,383.31628 C 200.91795,381.83972 198.02342,381.10144 196.80469,381.10143 C 195.6328,381.10144 194.70702,381.453 194.02734,382.15612 C 193.34764,382.85925 192.84374,384.31237 192.51563,386.5155 L 189.91406,386.5155 L 189.91406,353.82018 L 192.51563,353.82018 C 193.73436,360.66396 195.37498,365.78505 197.4375,369.18346 C 199.49998,372.58191 202.65232,375.40613 206.89453,377.65612 C 211.13669,379.90612 215.78903,381.03112 220.85156,381.03112 C 226.71089,381.03112 231.33979,379.48425 234.73828,376.3905 C 238.13666,373.29676 239.83588,369.64051 239.83594,365.42175 C 239.83588,363.07802 239.19135,360.71083 237.90234,358.32018 C 236.61322,355.92959 234.60932,353.70303 231.89063,351.6405 C 230.06245,350.23428 225.07027,347.246 216.91406,342.67565 C 208.75778,338.10539 202.95701,334.46086 199.51172,331.74206 C 196.06639,329.02336 193.45311,326.02337 191.67188,322.74206 C 189.89062,319.46087 188.99999,315.8515 189,311.91393 C 188.99999,305.07026 191.62499,299.17574 196.875,294.23034 C 202.12498,289.28512 208.80466,286.81247 216.91406,286.81237 C 221.97652,286.81247 227.3437,288.05465 233.01563,290.53893 C 235.64057,291.7109 237.49213,292.29684 238.57031,292.29675 C 239.789,292.29684 240.7851,291.93356 241.55859,291.2069 C 242.33197,290.48043 242.95306,289.01559 243.42188,286.81237 L 246.02344,286.81237 z "
       style="font-size:144px;font-family:Times New Roman"
       id="flowRoot2160" />
  </g>
</svg>
